<svg class="Filters_logo__x8qSg" viewBox="0 0 146 25" xmlns="http://www.w3.org/2000/svg"><path d="M22.552 0L.609 21.83l1.834 1.824 21.942-21.83L22.552 0zM19.209 10.68l-1.864 1.774 4.7 4.755-4.7 4.676 1.864 1.854 6.563-6.53-1.864-1.853-4.7-4.676zM34.42 8.533H37.3v5.734h5.187V8.533h2.882v15.138h-2.882v-6.652h-5.187v6.537H34.42V8.533zM50.788 15.873c0-5.16 2.305-7.683 5.648-7.683 3.343 0 5.648 2.408 5.648 7.683 0 5.734-2.305 8.142-5.648 8.142-3.343-.114-5.648-2.408-5.648-8.142zm8.299 0c0-3.555-.807-4.816-2.651-4.816-1.844 0-2.651 1.261-2.651 4.816 0 4.129.807 5.275 2.65 5.275 1.845 0 2.652-1.146 2.652-5.275zM67.502 15.873c0-5.16 2.305-7.683 5.648-7.683 3.343 0 5.648 2.408 5.648 7.683 0 5.734-2.305 8.142-5.648 8.142-3.343-.114-5.648-2.408-5.648-8.142zm8.414 0c0-3.555-.806-4.816-2.65-4.816-1.845 0-2.652 1.261-2.652 4.816 0 4.129.807 5.275 2.651 5.275 1.844 0 2.651-1.146 2.651-5.275zM84.792 8.534h5.533c3.343 0 5.533 2.064 5.533 7.34 0 5.733-2.306 7.797-5.648 7.797h-5.418V8.534zm5.418 12.27c1.844 0 2.65-.802 2.65-5.045 0-3.555-.69-4.473-2.535-4.473h-2.536v9.518h2.42zM101.852 20.804h3.458v-9.518h-3.458V8.534h9.683v2.752h-3.343v9.518h3.343v2.753h-9.683v-2.753zM119.027 8.534h9.567v2.752h-6.685v2.982h6.109v2.752h-6.109v3.784h6.685v2.753h-9.567V8.534zM137.124 17.823c.116 1.376.577 3.326 3.343 3.326 1.383 0 2.651-.574 2.651-1.95 0-1.147-.807-1.835-2.766-2.293-2.767-.688-5.072-1.72-5.072-4.473 0-2.179 1.729-4.128 5.072-4.128 2.536 0 4.726 1.376 5.417 4.128l-2.766.574c-.231-.803-1.037-1.95-2.651-1.95-1.383 0-2.075.688-2.075 1.376 0 .918 1.268 1.376 2.882 1.835 2.19.688 4.841 1.49 4.841 5.046 0 2.752-2.19 4.816-5.533 4.816-4.611 0-5.763-3.21-5.994-5.619l2.651-.688z" fill="#000"></path></svg>