<svg width="665" height="199" viewBox="0 0 665 199" fill="none" xmlns="http://www.w3.org/2000/svg">
<path d="M79.9375 89L76.875 89.0625C74.125 97.0625 71.875 104 70.125 109.875C68.375 115.708 66.9583 119.521 65.875 121.312C64.8333 123.062 63.6875 124.479 62.4375 125.562C61.2292 126.604 59.6667 127.396 57.75 127.938C54.5833 128.812 50.2917 129.25 44.875 129.25C39.4583 129.25 34.25 128.646 29.25 127.438C24.2917 126.229 20.3333 124.75 17.375 123C14.4167 121.208 12.9375 119.479 12.9375 117.812C12.9375 116.854 13.3542 116.104 14.1875 115.562C14.9792 114.979 15.9167 114.688 17 114.688C20.8333 114.688 23.6458 114.083 25.4375 112.875C27.2708 111.625 29 109.354 30.625 106.062C32.25 102.771 33.8542 98.9583 35.4375 94.625C37.0625 90.2917 38.5625 86.2708 39.9375 82.5625C41.3542 78.8542 42.9792 75.0625 44.8125 71.1875C48.7292 62.8542 53.5833 57.2917 59.375 54.5C62.1667 53.1667 65.875 52.1458 70.5 51.4375C75.125 50.6875 78.7292 50.3125 81.3125 50.3125C83.8958 50.3125 85.5833 50.3542 86.375 50.4375C87.1667 50.4792 87.9583 50.6042 88.75 50.8125C90.375 51.2292 91.1875 52.1458 91.1875 53.5625C91.1875 54.4375 91.0208 55.25 90.6875 56C90.3542 56.75 89.3333 58.5625 87.625 61.4375C85.9583 64.2708 83.0833 71.4375 79 82.9375C101.125 80.3542 112.188 72.2708 112.188 58.6875C112.188 54.1042 110.75 50.6667 107.875 48.375C104.917 46.0833 101.917 44.6875 98.875 44.1875C94.3333 43.4375 89.3333 43.0625 83.875 43.0625C78.4583 43.0625 72.7917 43.5833 66.875 44.625C60.9583 45.625 56.3542 46.75 53.0625 48C49.8125 49.2083 46.8958 50.3333 44.3125 51.375C41.7708 52.375 40.1458 52.875 39.4375 52.875C37.2292 52.875 36.125 52.1458 36.125 50.6875C36.125 48.8542 37.3125 47.1875 39.6875 45.6875C47.9375 40.3958 57.375 36.375 68 33.625C78.625 30.875 91.9375 29.5 107.938 29.5C116.146 29.5 123 30.3542 128.5 32.0625C134 33.7292 138.208 35.5 141.125 37.375C144.083 39.2083 146.5 41.6458 148.375 44.6875C150.25 47.7292 151.188 51.0625 151.188 54.6875C151.188 58.3125 150.5 61.5208 149.125 64.3125C147.75 67.0625 145.854 69.4375 143.438 71.4375C141.062 73.3958 138.042 75.1667 134.375 76.75C128.042 79.4583 119.479 81.6667 108.688 83.375C116.938 83.375 123.458 84.7917 128.25 87.625C133.042 90.4583 135.438 94.4583 135.438 99.625L134.312 110.75C134.312 113.75 135.833 115.458 138.875 115.875C140.167 116.083 141.458 116.25 142.75 116.375C145.792 116.625 147.312 117.792 147.312 119.875C147.312 122.708 143.771 125.188 136.688 127.312C129.646 129.438 121.917 130.5 113.5 130.5C97.625 130.5 89.6875 125.854 89.6875 116.562C89.6875 114.312 90.375 111.104 91.75 106.938C93.125 102.771 93.8125 99.9792 93.8125 98.5625C93.8125 95.9375 92.7292 93.6875 90.5625 91.8125C88.3958 89.9375 84.8542 89 79.9375 89ZM205.688 114.625C213.521 114.625 220.062 108.625 225.312 96.625C227.729 91.125 228.938 86.6667 228.938 83.25C228.938 79.8333 228.354 77.4792 227.188 76.1875C226.062 74.8958 223.812 74.25 220.438 74.25C217.104 74.25 213.479 75.8125 209.562 78.9375C205.688 82.0208 202.562 85.9167 200.188 90.625C197.812 95.3333 196.625 99.5833 196.625 103.375C196.625 107.125 197.458 109.938 199.125 111.812C200.792 113.688 202.979 114.625 205.688 114.625ZM238.188 61.6875L266.812 63C267.896 63 268.708 63.3333 269.25 64C269.792 64.625 270.062 65.3333 270.062 66.125C270.062 69.1667 268.792 74.0208 266.25 80.6875C263.75 87.3125 261.229 93.8958 258.688 100.438C256.188 106.938 254.938 111.25 254.938 113.375C254.938 115.458 255.25 116.792 255.875 117.375C256.542 117.958 257.792 118.25 259.625 118.25C261.458 118.25 264.792 117.375 269.625 115.625C274.5 113.833 277.792 112.479 279.5 111.562C281.25 110.646 282.583 110.188 283.5 110.188C285.125 110.188 285.938 110.917 285.938 112.375C285.938 115.458 279.688 119.5 267.188 124.5C262.979 126.208 257.896 127.625 251.938 128.75C246.021 129.917 240 130.5 233.875 130.5C223.667 130.5 217.521 127.25 215.438 120.75C208.938 127.25 200.188 130.5 189.188 130.5C181.646 130.5 175.271 128.688 170.062 125.062C164.396 121.104 161.562 114.875 161.562 106.375C161.562 97.4167 164.208 89.1667 169.5 81.625C175.292 73.25 183.042 67.4792 192.75 64.3125C198.125 62.5625 203.896 61.6875 210.062 61.6875C219.521 61.6875 226.875 64.0208 232.125 68.6875C232.167 68.4375 232.188 68.0417 232.188 67.5L232.125 64.8125C232.125 62.7292 234.146 61.6875 238.188 61.6875ZM338.375 39.875C338.375 44.3333 335.896 48.2292 330.938 51.5625C326.021 54.8542 320.812 56.5 315.312 56.5C309.854 56.5 305.604 55.3958 302.562 53.1875C299.521 50.9375 298 48.2083 298 45C298 41.7917 299.167 38.875 301.5 36.25C303.833 33.625 306.854 31.5625 310.562 30.0625C314.312 28.5625 318.375 27.8125 322.75 27.8125C327.125 27.8125 330.812 28.9792 333.812 31.3125C336.854 33.6042 338.375 36.4583 338.375 39.875ZM320.812 117.438C323.646 117.438 327.479 116.771 332.312 115.438C337.188 114.062 340.729 112.854 342.938 111.812C345.146 110.729 346.688 110.188 347.562 110.188C349.312 110.188 350.188 111.062 350.188 112.812C350.188 113.604 349.542 114.5 348.25 115.5C344 118.667 336.354 121.958 325.312 125.375C314.271 128.792 304.417 130.5 295.75 130.5C290.375 130.5 285.875 129.646 282.25 127.938C278.625 126.229 276.812 123.625 276.812 120.125C276.812 118 278.625 112.792 282.25 104.5C289.083 88.7917 292.5 76.9583 292.5 69L292.438 66.625C292.438 64.5417 294.458 63.5 298.5 63.5L329.375 62.8125C330.458 62.8125 331.271 63.1458 331.812 63.8125C332.354 64.4375 332.625 65.1458 332.625 65.9375C332.625 68.8125 331.312 73.5625 328.688 80.1875C326.062 86.7708 323.438 93.25 320.812 99.625C318.188 106 316.875 110.562 316.875 113.312C316.875 116.062 318.188 117.438 320.812 117.438ZM371.375 35.9375L402 35.25C403.083 35.25 403.896 35.5833 404.438 36.25C404.979 36.875 405.25 37.5833 405.25 38.375C405.25 42.75 401.25 55.375 393.25 76.25C385.292 97.125 381.312 109.417 381.312 113.125C381.312 114.667 381.625 115.833 382.25 116.625C382.875 117.375 383.979 117.75 385.562 117.75C390.521 117.75 398.208 115.458 408.625 110.875C409.667 110.417 410.667 110.188 411.625 110.188C413.333 110.188 414.188 110.854 414.188 112.188C414.188 113.312 413.333 114.479 411.625 115.688C409.917 116.896 407.562 118.229 404.562 119.688C401.562 121.146 397.917 122.729 393.625 124.438C389.333 126.146 384.458 127.583 379 128.75C373.583 129.917 367.896 130.5 361.938 130.5C355.979 130.5 351.208 129.688 347.625 128.062C344.042 126.479 342.25 123.542 342.25 119.25C342.25 116.25 346.104 104.479 353.812 83.9375C356.688 76.2708 359.333 68.3125 361.75 60.0625C364.167 51.7708 365.375 45.5625 365.375 41.4375L365.312 39.0625C365.312 36.9792 367.333 35.9375 371.375 35.9375ZM447.5 130.438C446.458 130.479 444.917 130.5 442.875 130.5C433.292 130.5 424.25 129.604 415.75 127.812C407.292 126.021 402.292 123.938 400.75 121.562C400.25 120.812 400 119.875 400 118.75C400 117.625 401.333 115.833 404 113.375C406.667 110.875 408.5 109.625 409.5 109.625C410.5 109.625 411.521 110 412.562 110.75C413.646 111.458 414.833 112.333 416.125 113.375C417.417 114.417 418.854 115.458 420.438 116.5C424.229 119 428.792 120.25 434.125 120.25C436.25 120.25 437.958 119.708 439.25 118.625C440.583 117.542 441.25 116.188 441.25 114.562C441.25 112.896 440.688 111.458 439.562 110.25C438.479 109.042 437.042 108 435.25 107.125C433.5 106.208 431.562 105.312 429.438 104.438C427.312 103.521 425.167 102.542 423 101.5C420.875 100.417 418.917 99.25 417.125 98C413.167 95.2083 411.188 91.75 411.188 87.625C411.188 83.4583 412.438 79.8542 414.938 76.8125C417.479 73.7708 420.667 71.3333 424.5 69.5C428.333 67.6667 432.667 66.125 437.5 64.875C446 62.75 454.021 61.6875 461.562 61.6875C469.146 61.6875 476.188 62.0833 482.688 62.875C489.229 63.625 493.729 64.75 496.188 66.25C496.854 66.625 497.188 67.625 497.188 69.25C497.188 70.8333 496.625 73.125 495.5 76.125C494.375 79.0833 492.938 81.8333 491.188 84.375C489.479 86.875 487.938 88.125 486.562 88.125C486.021 88.125 485.562 87.8958 485.188 87.4375C481.229 82.6875 477.375 79.0417 473.625 76.5C469.917 73.9167 465.875 72.625 461.5 72.625C458.167 72.625 455.771 73.3125 454.312 74.6875C452.896 76.0208 452.188 77.4167 452.188 78.875C452.188 80.3333 452.979 81.7292 454.562 83.0625C456.188 84.3958 458.188 85.6042 460.562 86.6875C462.979 87.7708 465.583 89.0417 468.375 90.5C471.208 91.9167 473.812 93.375 476.188 94.875C478.604 96.3333 480.604 98.1875 482.188 100.438C483.812 102.646 484.625 105.438 484.625 108.812C484.625 112.188 483.396 115.479 480.938 118.688C491.271 116.604 499.354 114.042 505.188 111C506.188 110.458 507.042 110.188 507.75 110.188C509.333 110.188 510.125 110.979 510.125 112.562C510.125 113.896 509.312 115.125 507.688 116.25C506.062 117.333 503.375 118.667 499.625 120.25C495.875 121.792 491.417 123.354 486.25 124.938C474.208 128.604 461.292 130.438 447.5 130.438ZM570.875 129.375C567.125 129.375 565.25 127.417 565.25 123.5C565.25 119.583 566.792 114.896 569.875 109.438C573 103.979 577 98.5 581.875 93C586.75 87.5 592.292 81.8333 598.5 76C610.042 65.125 621.771 55.4583 633.688 47C630.229 46.5417 626.083 46.3125 621.25 46.3125C616.458 46.3125 611.479 46.875 606.312 48C601.146 49.0833 596.667 50.4167 592.875 52C589.083 53.5833 585.625 55.1667 582.5 56.75C575.083 60.5833 570.521 62.5 568.812 62.5C567.146 62.5 565.854 62.0833 564.938 61.25C564.021 60.4167 563.562 59.3958 563.562 58.1875C563.562 49.9375 565.062 42.8958 568.062 37.0625C571.104 31.1875 574.542 27.3125 578.375 25.4375C580.083 24.6042 582.667 24.1875 586.125 24.1875C596.333 24.1875 613.479 28.75 637.562 37.875C640.812 34.625 643.333 32.3125 645.125 30.9375C646.917 29.5625 648.5 28.875 649.875 28.875C651.292 28.875 653 29.7708 655 31.5625C657.042 33.3125 658.062 34.9792 658.062 36.5625C658.062 38.1042 657.271 40.25 655.688 43C654.104 45.75 652 48.8542 649.375 52.3125C646.75 55.7292 643.812 59.4583 640.562 63.5C637.354 67.5417 634.042 71.9583 630.625 76.75C627.208 81.5 624 86.3125 621 91.1875C614.167 102.271 609.812 113.042 607.938 123.5C607.604 125.417 606.708 126.708 605.25 127.375C602.333 128.708 590.875 129.375 570.875 129.375Z" fill="url(#paint0_linear_1_7)"/>
<path d="M79.9375 89V87H79.9171L79.8967 87.0004L79.9375 89ZM76.875 89.0625L76.8342 87.0629L75.4377 87.0914L74.9836 88.4123L76.875 89.0625ZM70.125 109.875L72.0407 110.45L72.0418 110.446L70.125 109.875ZM65.875 121.312L64.1635 120.278L64.1564 120.29L65.875 121.312ZM62.4375 125.562L63.7434 127.077L63.7474 127.074L62.4375 125.562ZM57.75 127.938L58.2827 129.865L58.2939 129.862L57.75 127.938ZM29.25 127.438L28.7765 129.381L28.7802 129.382L29.25 127.438ZM17.375 123L16.3389 124.711L16.3478 124.716L16.3567 124.721L17.375 123ZM14.1875 115.562L15.2775 117.239L15.3267 117.207L15.3739 117.173L14.1875 115.562ZM25.4375 112.875L26.5558 114.533L26.5642 114.527L25.4375 112.875ZM35.4375 94.625L33.5648 93.9228L33.5619 93.9307L33.559 93.9386L35.4375 94.625ZM39.9375 82.5625L38.0692 81.8488L38.0657 81.858L38.0623 81.8672L39.9375 82.5625ZM44.8125 71.1875L46.6204 72.0428L46.6225 72.0382L44.8125 71.1875ZM59.375 54.5L58.513 52.6953L58.5066 52.6984L59.375 54.5ZM70.5 51.4375L70.8028 53.4144L70.8115 53.4131L70.8201 53.4117L70.5 51.4375ZM86.375 50.4375L86.1656 52.4265L86.2176 52.432L86.2699 52.4347L86.375 50.4375ZM88.75 50.8125L88.241 52.7467L88.2532 52.7498L88.75 50.8125ZM87.625 61.4375L85.9056 60.4158L85.9011 60.4235L87.625 61.4375ZM79 82.9375L77.1153 82.2683L76.04 85.2967L79.2319 84.924L79 82.9375ZM107.875 48.375L109.122 46.8111L109.111 46.8024L109.1 46.7939L107.875 48.375ZM98.875 44.1875L98.5491 46.1608L98.5506 46.161L98.875 44.1875ZM66.875 44.625L67.2083 46.5971L67.2218 46.5947L66.875 44.625ZM53.0625 48L53.7595 49.8747L53.7725 49.8697L53.0625 48ZM44.3125 51.375L45.0447 53.2361L45.0526 53.233L45.0604 53.2299L44.3125 51.375ZM39.6875 45.6875L40.7555 47.3785L40.7673 47.371L39.6875 45.6875ZM128.5 32.0625L127.907 33.9725L127.92 33.9765L128.5 32.0625ZM141.125 37.375L140.043 39.0574L140.057 39.0663L140.071 39.075L141.125 37.375ZM149.125 64.3125L150.914 65.2069L150.919 65.1962L149.125 64.3125ZM143.438 71.4375L144.71 72.9806L144.713 72.9783L143.438 71.4375ZM134.375 76.75L135.161 78.5889L135.168 78.5861L134.375 76.75ZM108.688 83.375L108.375 81.3996L108.688 85.375V83.375ZM135.438 99.625L137.427 99.8262L137.438 99.7259V99.625H135.438ZM134.312 110.75L132.323 110.549L132.312 110.649V110.75H134.312ZM138.875 115.875L139.193 113.901L139.17 113.897L139.146 113.894L138.875 115.875ZM142.75 116.375L142.557 118.366L142.572 118.367L142.586 118.368L142.75 116.375ZM136.688 127.312L136.113 125.397L136.11 125.398L136.688 127.312ZM79.8967 87.0004L76.8342 87.0629L76.9158 91.0621L79.9783 90.9996L79.8967 87.0004ZM74.9836 88.4123C72.2277 96.4295 69.9685 103.395 68.2082 109.304L72.0418 110.446C73.7815 104.605 76.0223 97.6955 78.7664 89.7127L74.9836 88.4123ZM68.2093 109.3C66.4483 115.17 65.0947 118.738 64.1635 120.278L67.5865 122.347C68.822 120.304 70.3017 116.246 72.0407 110.45L68.2093 109.3ZM64.1564 120.29C63.1997 121.897 62.1838 123.136 61.1276 124.051L63.7474 127.074C65.1912 125.823 66.4669 124.228 67.5936 122.335L64.1564 120.29ZM61.1316 124.048C60.1922 124.858 58.9098 125.531 57.2061 126.013L58.2939 129.862C60.4235 129.26 62.2662 128.351 63.7434 127.077L61.1316 124.048ZM57.2173 126.01C54.2997 126.816 50.2119 127.25 44.875 127.25V131.25C50.3714 131.25 54.8669 130.809 58.2827 129.865L57.2173 126.01ZM44.875 127.25C39.6082 127.25 34.558 126.663 29.7198 125.493L28.7802 129.382C33.942 130.629 39.3084 131.25 44.875 131.25V127.25ZM29.7235 125.494C24.8734 124.312 21.1212 122.892 18.3933 121.279L16.3567 124.721C19.5454 126.608 23.71 128.146 28.7765 129.381L29.7235 125.494ZM18.4111 121.289C17.0295 120.453 16.1157 119.701 15.5667 119.059C15.0236 118.424 14.9375 118.02 14.9375 117.812H10.9375C10.9375 119.272 11.591 120.565 12.5271 121.659C13.4572 122.747 14.7621 123.756 16.3389 124.711L18.4111 121.289ZM14.9375 117.812C14.9375 117.561 14.9863 117.429 15.2775 117.239L13.0975 113.886C11.722 114.78 10.9375 116.147 10.9375 117.812H14.9375ZM15.3739 117.173C15.7868 116.868 16.2979 116.688 17 116.688V112.688C15.5354 112.688 14.1715 113.09 13.0011 113.952L15.3739 117.173ZM17 116.688C20.9619 116.688 24.2646 116.078 26.5558 114.533L24.3192 111.217C23.027 112.088 20.7048 112.688 17 112.688V116.688ZM26.5642 114.527C28.8112 112.995 30.7295 110.369 32.4184 106.948L28.8316 105.177C27.2705 108.339 25.7305 110.255 24.3108 111.223L26.5642 114.527ZM32.4184 106.948C34.0822 103.578 35.7139 99.6962 37.316 95.3114L33.559 93.9386C31.9944 98.2205 30.4178 101.964 28.8316 105.177L32.4184 106.948ZM37.3102 95.3272C38.9359 90.992 40.4368 86.9688 41.8127 83.2578L38.0623 81.8672C36.6882 85.5729 35.1891 89.5914 33.5648 93.9228L37.3102 95.3272ZM41.8058 83.2762C43.2028 79.6195 44.8073 75.8751 46.6204 72.0428L43.0046 70.3322C41.1511 74.2499 39.5056 78.0889 38.0692 81.8488L41.8058 83.2762ZM46.6225 72.0382C50.4263 63.945 55.0117 58.8234 60.2434 56.3016L58.5066 52.6984C52.1549 55.76 47.032 61.7633 43.0025 70.3368L46.6225 72.0382ZM60.237 56.3047C62.7858 55.0873 66.2831 54.1067 70.8028 53.4144L70.1972 49.4606C65.4669 50.185 61.5475 51.246 58.513 52.6953L60.237 56.3047ZM70.8201 53.4117C75.4097 52.6675 78.8897 52.3125 81.3125 52.3125V48.3125C78.5686 48.3125 74.8403 48.7075 70.1799 49.4633L70.8201 53.4117ZM81.3125 52.3125C83.9196 52.3125 85.4977 52.3562 86.1656 52.4265L86.5844 48.4485C85.6689 48.3521 83.8721 48.3125 81.3125 48.3125V52.3125ZM86.2699 52.4347C86.9207 52.469 87.5772 52.5719 88.241 52.7466L89.259 48.8784C88.3395 48.6364 87.4126 48.4893 86.4801 48.4403L86.2699 52.4347ZM88.2532 52.7498C88.8179 52.8946 89.0215 53.0715 89.0814 53.1391C89.1132 53.175 89.1875 53.2617 89.1875 53.5625H93.1875C93.1875 52.4467 92.8555 51.3667 92.0748 50.4859C91.3223 49.6369 90.3071 49.1471 89.2468 48.8752L88.2532 52.7498ZM89.1875 53.5625C89.1875 54.1765 89.0722 54.7101 88.8599 55.1877L92.5151 56.8123C92.9695 55.7899 93.1875 54.6985 93.1875 53.5625H89.1875ZM88.8599 55.1877C88.5855 55.805 87.6373 57.5015 85.9056 60.4158L89.3444 62.4592C91.0293 59.6235 92.1228 57.695 92.5151 56.8123L88.8599 55.1877ZM85.9011 60.4235C84.1169 63.4567 81.1778 70.827 77.1153 82.2683L80.8847 83.6067C84.9889 72.048 87.7998 65.085 89.3489 62.4515L85.9011 60.4235ZM79.2319 84.924C90.4453 83.6147 99.1379 80.8873 105.071 76.5523C111.112 72.138 114.188 66.124 114.188 58.6875H110.188C110.188 64.8343 107.732 69.6537 102.711 73.3227C97.5809 77.071 89.6797 79.6769 78.7681 80.951L79.2319 84.924ZM114.188 58.6875C114.188 53.6602 112.588 49.5743 109.122 46.8111L106.628 49.9389C108.912 51.7591 110.188 54.5481 110.188 58.6875H114.188ZM109.1 46.7939C105.934 44.3418 102.632 42.7783 99.1994 42.214L98.5506 46.161C101.201 46.5967 103.899 47.8248 106.65 49.9561L109.1 46.7939ZM99.2009 42.2142C94.5339 41.4435 89.4231 41.0625 83.875 41.0625V45.0625C89.2436 45.0625 94.1328 45.4315 98.5491 46.1608L99.2009 42.2142ZM83.875 41.0625C78.3303 41.0625 72.5472 41.5956 66.5282 42.6553L67.2218 46.5947C73.0362 45.571 78.5864 45.0625 83.875 45.0625V41.0625ZM66.5417 42.653C60.5726 43.6618 55.8217 44.8128 52.3525 46.1303L53.7725 49.8697C56.8866 48.6872 61.344 47.5882 67.2083 46.597L66.5417 42.653ZM52.3655 46.1254C49.1024 47.3386 46.1683 48.4702 43.5646 49.5201L45.0604 53.2299C47.6234 52.1964 50.5226 51.0781 53.7595 49.8746L52.3655 46.1254ZM43.5803 49.5139C42.3322 50.0049 41.3432 50.3596 40.5993 50.5884C40.2275 50.7028 39.938 50.7793 39.7216 50.8256C39.4878 50.8757 39.4105 50.875 39.4375 50.875V54.875C40.1234 54.875 40.9647 54.6611 41.7757 54.4116C42.6568 54.1404 43.7512 53.7451 45.0447 53.2361L43.5803 49.5139ZM39.4375 50.875C38.9892 50.875 38.6562 50.8374 38.4182 50.785C38.1794 50.7325 38.0779 50.6742 38.0552 50.6592C38.046 50.6531 38.086 50.681 38.1175 50.7433C38.145 50.7978 38.125 50.7982 38.125 50.6875H34.125C34.125 52.0074 34.6739 53.2197 35.851 53.9971C36.8827 54.6784 38.1767 54.875 39.4375 54.875V50.875ZM38.125 50.6875C38.125 49.8541 38.6334 48.7187 40.7555 47.3785L38.6195 43.9965C35.9916 45.6563 34.125 47.8543 34.125 50.6875H38.125ZM40.7673 47.371C48.8191 42.2064 58.0569 38.2644 68.5011 35.5612L67.4989 31.6888C56.6931 34.4856 47.0559 38.5852 38.6077 44.004L40.7673 47.371ZM68.5011 35.5612C78.9065 32.868 92.0369 31.5 107.938 31.5V27.5C91.8381 27.5 78.3435 28.882 67.4989 31.6888L68.5011 35.5612ZM107.938 31.5C116.023 31.5 122.661 32.3432 127.907 33.9725L129.093 30.1525C123.339 28.3651 116.269 27.5 107.938 27.5V31.5ZM127.92 33.9765C133.343 35.6198 137.351 37.3264 140.043 39.0574L142.207 35.6926C139.066 33.6736 134.657 31.8385 129.08 30.1485L127.92 33.9765ZM140.071 39.075C142.759 40.7404 144.956 42.9523 146.672 45.737L150.078 43.638C148.044 40.3394 145.408 37.6763 142.179 35.675L140.071 39.075ZM146.672 45.737C148.35 48.4584 149.188 51.4275 149.188 54.6875H153.188C153.188 50.6975 152.15 47 150.078 43.638L146.672 45.737ZM149.188 54.6875C149.188 58.0565 148.55 60.9539 147.331 63.4288L150.919 65.1962C152.45 62.0877 153.188 58.5685 153.188 54.6875H149.188ZM147.336 63.4181C146.088 65.9141 144.369 68.0704 142.162 69.8967L144.713 72.9783C147.339 70.8046 149.412 68.2109 150.914 65.2069L147.336 63.4181ZM142.165 69.8944C139.971 71.7036 137.124 73.3843 133.582 74.9139L135.168 78.5861C138.959 76.949 142.154 75.0881 144.71 72.9806L142.165 69.8944ZM133.589 74.9111C127.469 77.5282 119.087 79.7039 108.375 81.3996L109 85.3504C119.872 83.6294 128.615 81.3885 135.161 78.5889L133.589 74.9111ZM108.688 85.375C116.74 85.375 122.863 86.7629 127.232 89.3466L129.268 85.9034C124.054 82.8204 117.135 81.375 108.688 81.375V85.375ZM127.232 89.3466C131.472 91.8538 133.438 95.2295 133.438 99.625H137.438C137.438 93.6872 134.611 89.0629 129.268 85.9034L127.232 89.3466ZM133.448 99.4238L132.323 110.549L136.302 110.951L137.427 99.8262L133.448 99.4238ZM132.312 110.75C132.312 112.584 132.782 114.289 133.959 115.611C135.131 116.927 136.773 117.606 138.604 117.856L139.146 113.894C137.935 113.728 137.296 113.344 136.947 112.951C136.603 112.565 136.312 111.916 136.312 110.75H132.312ZM138.557 117.849C139.89 118.064 141.223 118.237 142.557 118.366L142.943 114.384C141.693 114.263 140.444 114.102 139.193 113.901L138.557 117.849ZM142.586 118.368C143.931 118.479 144.63 118.775 144.955 119.024C145.174 119.193 145.312 119.393 145.312 119.875H149.312C149.312 118.274 148.69 116.849 147.389 115.851C146.193 114.933 144.611 114.521 142.914 114.382L142.586 118.368ZM145.312 119.875C145.312 120.349 145.038 121.151 143.509 122.221C141.994 123.281 139.574 124.359 136.113 125.397L137.262 129.228C140.885 128.141 143.777 126.917 145.803 125.498C147.816 124.089 149.312 122.235 149.312 119.875H145.312ZM136.11 125.398C129.28 127.459 121.749 128.5 113.5 128.5V132.5C122.085 132.5 130.011 131.416 137.265 129.227L136.11 125.398ZM113.5 128.5C105.692 128.5 100.164 127.346 96.6509 125.29C93.3029 123.33 91.6875 120.507 91.6875 116.562H87.6875C87.6875 121.91 90.0408 126.055 94.6303 128.742C99.0545 131.331 105.433 132.5 113.5 132.5V128.5ZM91.6875 116.562C91.6875 114.643 92.2902 111.683 93.6493 107.564L89.8507 106.311C88.4598 110.526 87.6875 113.982 87.6875 116.562H91.6875ZM93.6493 107.564C94.3455 105.455 94.8782 103.662 95.2389 102.197C95.5902 100.77 95.8125 99.5239 95.8125 98.5625H91.8125C91.8125 99.0178 91.6911 99.8755 91.3549 101.241C91.0281 102.568 90.5295 104.254 89.8507 106.311L93.6493 107.564ZM95.8125 98.5625C95.8125 95.2996 94.4316 92.5158 91.8713 90.3002L89.2537 93.3248C91.0267 94.8592 91.8125 96.5754 91.8125 98.5625H95.8125ZM91.8713 90.3002C89.1584 87.9525 85.0201 87 79.9375 87V91C84.6882 91 87.6332 91.9225 89.2537 93.3248L91.8713 90.3002ZM225.312 96.625L223.481 95.8205L223.48 95.8234L225.312 96.625ZM227.188 76.1875L225.679 77.5011L225.691 77.5147L225.703 77.5281L227.188 76.1875ZM209.562 78.9375L210.808 80.5025L210.81 80.5009L209.562 78.9375ZM238.188 61.6875L238.279 59.6896L238.233 59.6875H238.188V61.6875ZM266.812 63L266.721 64.9979L266.767 65H266.812V63ZM269.25 64L267.698 65.2612L267.718 65.2858L267.739 65.3099L269.25 64ZM266.25 80.6875L264.381 79.975L264.379 79.9814L266.25 80.6875ZM258.688 100.438L256.823 99.7132L256.821 99.7195L258.688 100.438ZM255.875 117.375L254.51 118.837L254.534 118.859L254.558 118.88L255.875 117.375ZM269.625 115.625L270.306 117.506L270.315 117.502L269.625 115.625ZM279.5 111.562L278.572 109.791L278.563 109.795L278.554 109.8L279.5 111.562ZM267.188 124.5L266.445 122.643L266.435 122.647L267.188 124.5ZM251.938 128.75L251.566 126.785L251.559 126.786L251.551 126.788L251.938 128.75ZM215.438 120.75L217.342 120.14L216.341 117.018L214.023 119.336L215.438 120.75ZM170.062 125.062L168.917 126.702L168.92 126.704L170.062 125.062ZM169.5 81.625L171.137 82.7738L171.145 82.7626L169.5 81.625ZM192.75 64.3125L192.131 62.4108L192.13 62.4111L192.75 64.3125ZM232.125 68.6875L230.796 70.1823L233.503 72.5879L234.098 69.0163L232.125 68.6875ZM232.188 67.5H234.188V67.4767L234.187 67.4535L232.188 67.5ZM232.125 64.8125H230.125V64.8358L230.126 64.859L232.125 64.8125ZM205.688 116.625C214.768 116.625 221.81 109.622 227.145 97.4266L223.48 95.8234C218.315 107.628 212.274 112.625 205.688 112.625V116.625ZM227.144 97.4295C229.6 91.8395 230.938 87.0791 230.938 83.25H226.938C226.938 86.2542 225.859 90.4105 223.481 95.8205L227.144 97.4295ZM230.938 83.25C230.938 79.7499 230.37 76.7267 228.672 74.8469L225.703 77.5281C226.339 78.2317 226.938 79.9167 226.938 83.25H230.938ZM228.696 74.8739C226.954 72.874 223.89 72.25 220.438 72.25V76.25C223.735 76.25 225.171 76.9176 225.679 77.5011L228.696 74.8739ZM220.438 72.25C216.473 72.25 212.416 74.1026 208.315 77.3741L210.81 80.5009C214.543 77.5224 217.736 76.25 220.438 76.25V72.25ZM208.317 77.3725C204.202 80.6472 200.898 84.7751 198.402 89.7243L201.973 91.5257C204.227 87.0582 207.173 83.3945 210.808 80.5025L208.317 77.3725ZM198.402 89.7243C195.938 94.6091 194.625 99.1726 194.625 103.375H198.625C198.625 99.994 199.687 96.0576 201.973 91.5257L198.402 89.7243ZM194.625 103.375C194.625 107.379 195.51 110.756 197.63 113.141L200.62 110.484C199.407 109.119 198.625 106.871 198.625 103.375H194.625ZM197.63 113.141C199.709 115.48 202.459 116.625 205.688 116.625V112.625C203.499 112.625 201.874 111.895 200.62 110.484L197.63 113.141ZM238.096 63.6854L266.721 64.9979L266.904 61.0021L238.279 59.6896L238.096 63.6854ZM266.812 65C267.465 65 267.632 65.1805 267.698 65.2612L270.802 62.7388C269.784 61.4862 268.327 61 266.812 61V65ZM267.739 65.3099C267.981 65.589 268.062 65.8375 268.062 66.125H272.062C272.062 64.8292 271.603 63.661 270.761 62.6901L267.739 65.3099ZM268.062 66.125C268.062 68.7631 266.922 73.3111 264.381 79.975L268.119 81.4C270.662 74.7305 272.062 69.5702 272.062 66.125H268.062ZM264.379 79.9814C261.881 86.6004 259.363 93.1776 256.823 99.7132L260.552 101.162C263.096 94.614 265.619 88.0246 268.121 81.3936L264.379 79.9814ZM256.821 99.7195C255.56 102.997 254.601 105.758 253.954 107.99C253.321 110.173 252.938 112.012 252.938 113.375H256.938C256.938 112.613 257.179 111.234 257.796 109.104C258.399 107.023 259.315 104.378 260.554 101.155L256.821 99.7195ZM252.938 113.375C252.938 114.5 253.02 115.522 253.225 116.394C253.422 117.234 253.782 118.157 254.51 118.837L257.24 115.913C257.343 116.009 257.235 115.974 257.119 115.481C257.011 115.02 256.938 114.334 256.938 113.375H252.938ZM254.558 118.88C255.819 119.984 257.741 120.25 259.625 120.25V116.25C258.802 116.25 258.195 116.183 257.767 116.084C257.557 116.035 257.411 115.982 257.315 115.938C257.22 115.895 257.188 115.866 257.192 115.87L254.558 118.88ZM259.625 120.25C260.803 120.25 262.293 119.978 264.008 119.528C265.754 119.07 267.857 118.392 270.306 117.506L268.944 113.744C266.56 114.608 264.58 115.243 262.992 115.659C261.373 116.084 260.281 116.25 259.625 116.25V120.25ZM270.315 117.502C275.179 115.715 278.597 114.317 280.446 113.325L278.554 109.8C276.987 110.641 273.821 111.952 268.935 113.748L270.315 117.502ZM280.428 113.334C282.15 112.432 283.108 112.188 283.5 112.188V108.188C282.059 108.188 280.35 108.859 278.572 109.791L280.428 113.334ZM283.5 112.188C283.763 112.188 283.918 112.218 283.993 112.24C284.062 112.261 284.042 112.268 283.992 112.223C283.969 112.202 283.948 112.178 283.932 112.154C283.924 112.142 283.919 112.132 283.915 112.125C283.912 112.118 283.91 112.114 283.91 112.114C283.911 112.117 283.938 112.191 283.938 112.375H287.938C287.938 111.278 287.622 110.106 286.664 109.246C285.747 108.423 284.571 108.188 283.5 108.188V112.188ZM283.938 112.375C283.938 112.458 283.888 112.834 283.262 113.548C282.651 114.244 281.649 115.079 280.164 116.039C277.201 117.955 272.654 120.159 266.445 122.643L267.93 126.357C274.221 123.841 279.049 121.524 282.336 119.398C283.976 118.338 285.317 117.271 286.269 116.186C287.205 115.119 287.938 113.834 287.938 112.375H283.938ZM266.435 122.647C262.383 124.292 257.435 125.677 251.566 126.785L252.309 130.715C258.357 129.573 263.575 128.125 267.94 126.353L266.435 122.647ZM251.551 126.788C245.763 127.929 239.872 128.5 233.875 128.5V132.5C240.128 132.5 246.278 131.904 252.324 130.712L251.551 126.788ZM233.875 128.5C228.955 128.5 225.226 127.712 222.544 126.294C219.924 124.909 218.221 122.882 217.342 120.14L213.533 121.36C214.737 125.118 217.149 127.966 220.674 129.831C224.139 131.663 228.586 132.5 233.875 132.5V128.5ZM214.023 119.336C207.971 125.388 199.769 128.5 189.188 128.5V132.5C200.606 132.5 209.904 129.112 216.852 122.164L214.023 119.336ZM189.188 128.5C181.976 128.5 176.019 126.771 171.205 123.421L168.92 126.704C174.523 130.604 181.316 132.5 189.188 132.5V128.5ZM171.208 123.423C166.202 119.926 163.562 114.391 163.562 106.375H159.562C159.562 115.359 162.59 122.282 168.917 126.702L171.208 123.423ZM163.562 106.375C163.562 97.8401 166.074 89.9891 171.137 82.7737L167.863 80.4763C162.342 88.3442 159.562 96.9933 159.562 106.375H163.562ZM171.145 82.7626C176.687 74.7485 184.077 69.2453 193.37 66.2139L192.13 62.4111C182.007 65.713 173.896 71.7515 167.855 80.4874L171.145 82.7626ZM193.369 66.2142C198.527 64.535 204.087 63.6875 210.062 63.6875V59.6875C203.705 59.6875 197.723 60.59 192.131 62.4108L193.369 66.2142ZM210.062 63.6875C219.203 63.6875 226.023 65.9395 230.796 70.1823L233.454 67.1927C227.727 62.1022 219.839 59.6875 210.062 59.6875V63.6875ZM234.098 69.0163C234.168 68.5928 234.188 68.0571 234.188 67.5H230.188C230.188 68.0263 230.165 68.2822 230.152 68.3587L234.098 69.0163ZM234.187 67.4535L234.124 64.766L230.126 64.859L230.188 67.5465L234.187 67.4535ZM234.125 64.8125C234.125 64.6294 234.164 64.5606 234.183 64.5314C234.208 64.4925 234.294 64.3822 234.557 64.2465C235.142 63.945 236.274 63.6875 238.188 63.6875V59.6875C236.06 59.6875 234.16 59.9508 232.724 60.691C231.977 61.0761 231.305 61.6169 230.824 62.3593C230.338 63.1113 230.125 63.9539 230.125 64.8125H234.125ZM330.938 51.5625L332.05 53.2244L332.053 53.2223L330.938 51.5625ZM302.562 53.1875L301.373 54.7954L301.38 54.8007L301.387 54.8059L302.562 53.1875ZM310.562 30.0625L309.82 28.2055L309.813 28.2084L310.562 30.0625ZM333.812 31.3125L332.585 32.8912L332.597 32.9006L332.609 32.9099L333.812 31.3125ZM332.312 115.438L332.844 117.366L332.855 117.362L332.312 115.438ZM342.938 111.812L343.791 113.621L343.805 113.615L343.818 113.608L342.938 111.812ZM348.25 115.5L349.445 117.104L349.46 117.093L349.474 117.081L348.25 115.5ZM282.25 104.5L284.083 105.301L284.084 105.298L282.25 104.5ZM292.5 69H294.5V68.9737L294.499 68.9474L292.5 69ZM292.438 66.625H290.438V66.6513L290.438 66.6776L292.438 66.625ZM298.5 63.5V65.5H298.522L298.545 65.4995L298.5 63.5ZM329.375 62.8125V60.8125H329.353L329.33 60.813L329.375 62.8125ZM331.812 63.8125L330.26 65.0737L330.28 65.0983L330.301 65.1224L331.812 63.8125ZM328.688 80.1875L330.545 80.9283L330.547 80.9242L328.688 80.1875ZM336.375 39.875C336.375 43.4511 334.435 46.8014 329.822 49.9027L332.053 53.2223C337.357 49.657 340.375 45.2156 340.375 39.875H336.375ZM329.825 49.9006C325.211 52.9893 320.386 54.5 315.312 54.5V58.5C321.239 58.5 326.83 56.719 332.05 53.2244L329.825 49.9006ZM315.312 54.5C310.093 54.5 306.314 53.44 303.738 51.5691L301.387 54.8059C304.894 57.3517 309.615 58.5 315.312 58.5V54.5ZM303.752 51.5796C301.117 49.6301 300 47.4555 300 45H296C296 48.9611 297.925 52.2449 301.373 54.7954L303.752 51.5796ZM300 45C300 42.3294 300.954 39.8751 302.995 37.5787L300.005 34.9213C297.38 37.8749 296 41.2539 296 45H300ZM302.995 37.5787C305.097 35.2139 307.85 33.3172 311.312 31.9166L309.813 28.2084C305.859 29.8078 302.57 32.0361 300.005 34.9213L302.995 37.5787ZM311.305 31.9195C314.8 30.5216 318.608 29.8125 322.75 29.8125V25.8125C318.142 25.8125 313.825 26.6034 309.82 28.2055L311.305 31.9195ZM322.75 29.8125C326.751 29.8125 329.987 30.8712 332.585 32.8912L335.04 29.7338C331.638 27.0872 327.499 25.8125 322.75 25.8125V29.8125ZM332.609 32.9099C335.215 34.8734 336.375 37.1646 336.375 39.875H340.375C340.375 35.752 338.493 32.3349 335.016 29.7151L332.609 32.9099ZM320.812 119.438C323.913 119.438 327.949 118.716 332.844 117.365L331.781 113.51C327.009 114.826 323.379 115.438 320.812 115.438V119.438ZM332.855 117.362C337.749 115.982 341.424 114.738 343.791 113.621L342.084 110.004C340.034 110.971 336.626 112.143 331.77 113.513L332.855 117.362ZM343.818 113.608C344.883 113.086 345.744 112.716 346.413 112.481C347.122 112.231 347.469 112.188 347.562 112.188V108.188C346.781 108.188 345.919 108.414 345.087 108.707C344.215 109.013 343.2 109.456 342.057 110.017L343.818 113.608ZM347.562 112.188C348.129 112.188 348.187 112.328 348.117 112.258C348.047 112.188 348.188 112.246 348.188 112.812H352.188C352.188 111.629 351.89 110.374 350.945 109.43C350.001 108.485 348.746 108.188 347.562 108.188V112.188ZM348.188 112.812C348.188 112.652 348.252 112.67 348.081 112.909C347.91 113.146 347.585 113.485 347.026 113.919L349.474 117.081C350.207 116.515 350.851 115.906 351.325 115.248C351.8 114.59 352.188 113.765 352.188 112.812H348.188ZM347.055 113.896C343.1 116.843 335.741 120.055 324.721 123.464L325.904 127.286C336.968 123.862 344.9 120.49 349.445 117.104L347.055 113.896ZM324.721 123.464C313.811 126.84 304.162 128.5 295.75 128.5V132.5C304.671 132.5 314.73 130.743 325.904 127.286L324.721 123.464ZM295.75 128.5C290.574 128.5 286.386 127.676 283.103 126.128L281.397 129.747C285.364 131.616 290.176 132.5 295.75 132.5V128.5ZM283.103 126.128C281.525 125.385 280.473 124.509 279.813 123.561C279.164 122.628 278.812 121.511 278.812 120.125H274.812C274.812 122.239 275.367 124.174 276.53 125.846C277.683 127.501 279.35 128.782 281.397 129.747L283.103 126.128ZM278.812 120.125C278.812 119.444 279.147 117.908 280.061 115.282C280.943 112.748 282.279 109.426 284.083 105.301L280.417 103.699C278.596 107.866 277.213 111.294 276.283 113.968C275.384 116.55 274.812 118.681 274.812 120.125H278.812ZM284.084 105.298C290.929 89.5618 294.5 77.4017 294.5 69H290.5C290.5 76.5149 287.237 88.0215 280.416 103.702L284.084 105.298ZM294.499 68.9474L294.437 66.5724L290.438 66.6776L290.501 69.0526L294.499 68.9474ZM294.438 66.625C294.438 66.4419 294.477 66.3731 294.496 66.3439C294.521 66.305 294.606 66.1947 294.869 66.059C295.454 65.7575 296.586 65.5 298.5 65.5V61.5C296.372 61.5 294.473 61.7633 293.037 62.5035C292.29 62.8886 291.617 63.4294 291.137 64.1718C290.651 64.9238 290.438 65.7664 290.438 66.625H294.438ZM298.545 65.4995L329.42 64.812L329.33 60.813L298.455 61.5005L298.545 65.4995ZM329.375 64.8125C330.028 64.8125 330.195 64.993 330.26 65.0737L333.365 62.5513C332.347 61.2987 330.889 60.8125 329.375 60.8125V64.8125ZM330.301 65.1224C330.543 65.4015 330.625 65.65 330.625 65.9375H334.625C334.625 64.6417 334.165 63.4735 333.324 62.5026L330.301 65.1224ZM330.625 65.9375C330.625 68.3873 329.458 72.8128 326.828 79.4508L330.547 80.9242C333.167 74.3122 334.625 69.2377 334.625 65.9375H330.625ZM326.83 79.4467C324.207 86.0233 321.585 92.4956 318.963 98.8635L322.662 100.386C325.29 94.0044 327.918 87.5183 330.545 80.9283L326.83 79.4467ZM318.963 98.8635C316.345 105.221 314.875 110.12 314.875 113.312H318.875C318.875 111.005 320.03 106.779 322.662 100.386L318.963 98.8635ZM314.875 113.312C314.875 114.973 315.27 116.59 316.413 117.787C317.572 119.002 319.167 119.438 320.812 119.438V115.438C319.833 115.438 319.459 115.186 319.306 115.025C319.136 114.848 318.875 114.402 318.875 113.312H314.875ZM371.375 35.9375V37.9375H371.397L371.42 37.937L371.375 35.9375ZM402 35.25V33.25H401.978L401.955 33.2505L402 35.25ZM404.438 36.25L402.885 37.5112L402.905 37.5358L402.926 37.5599L404.438 36.25ZM393.25 76.25L391.382 75.5343L391.381 75.5375L393.25 76.25ZM382.25 116.625L380.68 117.864L380.697 117.885L380.714 117.905L382.25 116.625ZM408.625 110.875L407.82 109.044L408.625 110.875ZM379 128.75L378.582 126.794L378.579 126.795L379 128.75ZM347.625 128.062L348.451 126.241L348.442 126.237L348.433 126.233L347.625 128.062ZM353.812 83.9375L355.685 84.6402L355.685 84.6397L353.812 83.9375ZM361.75 60.0625L363.669 60.6247L363.67 60.6221L361.75 60.0625ZM365.375 41.4375H367.375V41.4112L367.374 41.3849L365.375 41.4375ZM365.312 39.0625H363.312V39.0888L363.313 39.1151L365.312 39.0625ZM371.42 37.937L402.045 37.2495L401.955 33.2505L371.33 33.938L371.42 37.937ZM402 37.25C402.653 37.25 402.82 37.4305 402.885 37.5112L405.99 34.9888C404.972 33.7362 403.514 33.25 402 33.25V37.25ZM402.926 37.5599C403.168 37.839 403.25 38.0875 403.25 38.375H407.25C407.25 37.0792 406.79 35.911 405.949 34.9401L402.926 37.5599ZM403.25 38.375C403.25 39.2282 403.045 40.6527 402.553 42.745C402.069 44.8028 401.335 47.391 400.343 50.5209C398.361 56.779 395.376 65.1123 391.382 75.5343L395.118 76.9657C399.124 66.5127 402.139 58.096 404.157 51.7291C405.165 48.5465 405.931 45.8535 406.447 43.6612C406.955 41.5036 407.25 39.7093 407.25 38.375H403.25ZM391.381 75.5375C387.397 85.9876 384.399 94.3157 382.394 100.509C381.392 103.604 380.631 106.189 380.118 108.252C379.617 110.266 379.312 111.934 379.312 113.125H383.312C383.312 112.462 383.506 111.203 383.999 109.217C384.481 107.28 385.212 104.792 386.2 101.741C388.174 95.6426 391.144 87.3874 395.119 76.9625L391.381 75.5375ZM379.312 113.125C379.312 114.891 379.663 116.576 380.68 117.864L383.82 115.386C383.587 115.091 383.312 114.443 383.312 113.125H379.312ZM380.714 117.905C381.902 119.332 383.749 119.75 385.562 119.75V115.75C384.209 115.75 383.848 115.418 383.786 115.345L380.714 117.905ZM385.562 119.75C390.979 119.75 399.006 117.293 409.43 112.706L407.82 109.044C397.411 113.624 390.063 115.75 385.562 115.75V119.75ZM409.43 112.706C410.265 112.338 410.991 112.188 411.625 112.188V108.188C410.342 108.188 409.068 108.495 407.82 109.044L409.43 112.706ZM411.625 112.188C411.929 112.188 412.126 112.218 412.243 112.248C412.356 112.278 412.36 112.298 412.316 112.264C412.262 112.222 412.214 112.158 412.188 112.098C412.168 112.05 412.188 112.065 412.188 112.188H416.188C416.188 111.062 415.802 109.91 414.777 109.111C413.847 108.385 412.684 108.188 411.625 108.188V112.188ZM412.188 112.188C412.188 112.271 412.082 112.915 410.47 114.055L412.78 117.32C414.585 116.044 416.188 114.354 416.188 112.188H412.188ZM410.47 114.055C408.887 115.175 406.64 116.454 403.688 117.889L405.437 121.486C408.485 120.005 410.947 118.617 412.78 117.32L410.47 114.055ZM403.688 117.889C400.745 119.319 397.147 120.883 392.885 122.579L394.365 126.296C398.686 124.576 402.38 122.972 405.437 121.486L403.688 117.889ZM392.885 122.579C388.717 124.239 383.952 125.646 378.582 126.794L379.418 130.706C384.964 129.52 389.95 128.053 394.365 126.296L392.885 122.579ZM378.579 126.795C373.311 127.93 367.765 128.5 361.938 128.5V132.5C368.027 132.5 373.856 131.904 379.421 130.705L378.579 126.795ZM361.938 128.5C356.131 128.5 351.676 127.704 348.451 126.241L346.799 129.884C350.74 131.671 355.827 132.5 361.938 132.5V128.5ZM348.433 126.233C346.961 125.583 345.956 124.704 345.301 123.63C344.639 122.544 344.25 121.119 344.25 119.25H340.25C340.25 121.673 340.757 123.862 341.886 125.713C343.023 127.577 344.706 128.959 346.817 129.892L348.433 126.233ZM344.25 119.25C344.25 118.788 344.423 117.719 344.908 115.86C345.375 114.07 346.084 111.719 347.041 108.794C348.955 102.949 351.834 94.9013 355.685 84.6402L351.94 83.2348C348.082 93.5154 345.18 101.624 343.24 107.55C342.27 110.51 341.534 112.948 341.037 114.851C340.559 116.685 340.25 118.212 340.25 119.25H344.25ZM355.685 84.6397C358.578 76.9248 361.24 68.9196 363.669 60.6247L359.831 59.5003C357.427 67.7054 354.797 75.6169 351.94 83.2353L355.685 84.6397ZM363.67 60.6221C366.095 52.302 367.375 45.8637 367.375 41.4375H363.375C363.375 45.2613 362.238 51.2396 359.83 59.5029L363.67 60.6221ZM367.374 41.3849L367.312 39.0099L363.313 39.1151L363.376 41.4901L367.374 41.3849ZM367.312 39.0625C367.312 38.8794 367.352 38.8106 367.371 38.7814C367.396 38.7425 367.481 38.6322 367.744 38.4965C368.329 38.195 369.461 37.9375 371.375 37.9375V33.9375C369.247 33.9375 367.348 34.2008 365.912 34.941C365.165 35.3261 364.492 35.8669 364.012 36.6093C363.526 37.3613 363.312 38.2039 363.312 39.0625H367.312ZM447.5 130.438V128.438H447.46L447.42 128.439L447.5 130.438ZM415.75 127.812L415.336 129.769L415.337 129.769L415.75 127.812ZM400.75 121.562L402.428 120.474L402.421 120.463L402.414 120.453L400.75 121.562ZM404 113.375L405.356 114.845L405.362 114.84L405.368 114.834L404 113.375ZM412.562 110.75L411.394 112.373L411.43 112.399L411.468 112.424L412.562 110.75ZM420.438 116.5L421.538 114.83L421.537 114.829L420.438 116.5ZM439.25 118.625L437.989 117.073L437.977 117.083L437.965 117.093L439.25 118.625ZM439.562 110.25L438.073 111.585L438.086 111.599L438.099 111.613L439.562 110.25ZM435.25 107.125L434.322 108.897L434.347 108.91L434.372 108.922L435.25 107.125ZM429.438 104.438L428.645 106.274L428.661 106.281L428.676 106.287L429.438 104.438ZM423 101.5L422.092 103.282L422.112 103.292L422.133 103.303L423 101.5ZM417.125 98L415.972 99.6344L415.981 99.6403L417.125 98ZM414.938 76.8125L413.403 75.5301L413.398 75.5363L413.392 75.5426L414.938 76.8125ZM437.5 64.875L437.015 62.9347L437.007 62.9367L436.999 62.9387L437.5 64.875ZM482.688 62.875L482.446 64.8604L482.46 64.862L482.688 62.875ZM496.188 66.25L495.146 67.9573L495.176 67.9758L495.207 67.9932L496.188 66.25ZM495.5 76.125L497.369 76.8359L497.373 76.8272L495.5 76.125ZM491.188 84.375L489.54 83.2408L489.536 83.2466L491.188 84.375ZM485.188 87.4375L486.735 86.171L486.73 86.1641L486.724 86.1571L485.188 87.4375ZM473.625 76.5L472.482 78.1411L472.492 78.1484L472.503 78.1556L473.625 76.5ZM454.312 74.6875L455.683 76.1439L455.685 76.1427L454.312 74.6875ZM454.562 83.0625L453.274 84.5923L453.284 84.6005L453.294 84.6086L454.562 83.0625ZM460.562 86.6875L459.732 88.5072L459.744 88.5125L460.562 86.6875ZM468.375 90.5L467.449 92.2727L467.465 92.2809L467.481 92.2889L468.375 90.5ZM476.188 94.875L475.12 96.566L475.137 96.5769L475.154 96.5874L476.188 94.875ZM482.188 100.438L480.552 101.588L480.564 101.606L480.577 101.623L482.188 100.438ZM480.938 118.688L479.35 117.471L476.109 121.701L481.333 120.648L480.938 118.688ZM505.188 111L506.112 112.773L506.126 112.766L506.14 112.759L505.188 111ZM507.688 116.25L508.797 117.914L508.811 117.904L508.826 117.894L507.688 116.25ZM499.625 120.25L500.385 122.1L500.394 122.096L500.403 122.092L499.625 120.25ZM486.25 124.938L486.833 126.851L486.836 126.85L486.25 124.938ZM447.42 128.439C446.419 128.479 444.91 128.5 442.875 128.5V132.5C444.923 132.5 446.497 132.479 447.58 132.436L447.42 128.439ZM442.875 128.5C433.416 128.5 424.514 127.616 416.163 125.856L415.337 129.769C423.986 131.593 433.167 132.5 442.875 132.5V128.5ZM416.164 125.856C411.994 124.973 408.764 124.034 406.425 123.06C404.01 122.054 402.855 121.132 402.428 120.474L399.072 122.651C400.187 124.368 402.302 125.676 404.887 126.752C407.548 127.861 411.048 128.861 415.336 129.769L416.164 125.856ZM402.414 120.453C402.182 120.105 402 119.578 402 118.75H398C398 120.172 398.318 121.52 399.086 122.672L402.414 120.453ZM402 118.75C402 118.873 401.982 118.592 402.604 117.757C403.166 117.002 404.065 116.036 405.356 114.845L402.644 111.905C401.269 113.173 400.168 114.331 399.396 115.368C398.684 116.324 398 117.502 398 118.75H402ZM405.368 114.834C406.667 113.616 407.707 112.757 408.502 112.215C408.899 111.944 409.195 111.78 409.401 111.689C409.626 111.59 409.638 111.625 409.5 111.625V107.625C408.862 107.625 408.27 107.816 407.786 108.03C407.284 108.251 406.768 108.556 406.248 108.91C405.21 109.618 403.999 110.634 402.632 111.916L405.368 114.834ZM409.5 111.625C409.975 111.625 410.596 111.799 411.394 112.373L413.731 109.127C412.446 108.201 411.025 107.625 409.5 107.625V111.625ZM411.468 112.424C412.483 113.087 413.616 113.921 414.869 114.932L417.381 111.818C416.051 110.746 414.809 109.829 413.657 109.076L411.468 112.424ZM414.869 114.932C416.218 116.019 417.708 117.099 419.338 118.171L421.537 114.829C420 113.818 418.615 112.814 417.381 111.818L414.869 114.932ZM419.337 118.17C423.509 120.921 428.47 122.25 434.125 122.25V118.25C429.113 118.25 424.95 117.079 421.538 114.83L419.337 118.17ZM434.125 122.25C436.594 122.25 438.798 121.615 440.535 120.157L437.965 117.093C437.119 117.802 435.906 118.25 434.125 118.25V122.25ZM440.511 120.177C442.281 118.739 443.25 116.828 443.25 114.562H439.25C439.25 115.547 438.885 116.344 437.989 117.073L440.511 120.177ZM443.25 114.562C443.25 112.395 442.5 110.47 441.026 108.887L438.099 111.613C438.875 112.447 439.25 113.396 439.25 114.562H443.25ZM441.052 108.915C439.762 107.476 438.1 106.291 436.128 105.328L434.372 108.922C435.984 109.709 437.197 110.607 438.073 111.585L441.052 108.915ZM436.178 105.353C434.366 104.404 432.372 103.483 430.199 102.588L428.676 106.287C430.753 107.142 432.634 108.013 434.322 108.897L436.178 105.353ZM430.23 102.601C428.131 101.696 426.01 100.728 423.867 99.6975L422.133 103.303C424.324 104.356 426.494 105.346 428.645 106.274L430.23 102.601ZM423.908 99.7182C421.858 98.6728 419.979 97.5527 418.269 96.3597L415.981 99.6403C417.854 100.947 419.892 102.161 422.092 103.282L423.908 99.7182ZM418.278 96.3656C414.745 93.8739 413.188 90.9802 413.188 87.625H409.188C409.188 92.5198 411.589 96.5428 415.972 99.6344L418.278 96.3656ZM413.188 87.625C413.188 83.8924 414.295 80.7444 416.483 78.0824L413.392 75.5426C410.58 78.964 409.188 83.0242 409.188 87.625H413.188ZM416.472 78.0949C418.817 75.2889 421.769 73.0229 425.363 71.3043L423.637 67.6957C419.564 69.6438 416.141 72.2527 413.403 75.5301L416.472 78.0949ZM425.363 71.3043C429.062 69.5351 433.271 68.0345 438.001 66.8113L436.999 62.9387C432.062 64.2155 427.605 65.7982 423.637 67.6957L425.363 71.3043ZM437.985 66.8153C446.351 64.7237 454.208 63.6875 461.562 63.6875V59.6875C453.833 59.6875 445.649 60.7763 437.015 62.9347L437.985 66.8153ZM461.562 63.6875C469.077 63.6875 476.037 64.0798 482.446 64.8603L482.929 60.8897C476.338 60.0868 469.214 59.6875 461.562 59.6875V63.6875ZM482.46 64.862C488.992 65.6109 493.096 66.7068 495.146 67.9573L497.229 64.5427C494.362 62.7932 489.467 61.6391 482.915 60.888L482.46 64.862ZM495.207 67.9932C494.967 67.8581 494.971 67.7057 495.04 67.9137C495.112 68.1306 495.188 68.5492 495.188 69.25H499.188C499.188 68.3258 499.096 67.4319 498.835 66.6488C498.571 65.8568 498.075 65.0169 497.168 64.5068L495.207 67.9932ZM495.188 69.25C495.188 70.4555 494.736 72.4655 493.627 75.4228L497.373 76.8272C498.514 73.7845 499.188 71.2111 499.188 69.25H495.188ZM493.631 75.4141C492.561 78.2268 491.197 80.8342 489.54 83.2408L492.835 85.5092C494.678 82.8325 496.189 79.9399 497.369 76.8359L493.631 75.4141ZM489.536 83.2466C488.74 84.4113 488.054 85.1772 487.49 85.634C486.922 86.0949 486.626 86.125 486.562 86.125V90.125C487.874 90.125 489.036 89.5301 490.01 88.741C490.988 87.9478 491.926 86.8387 492.839 85.5034L489.536 83.2466ZM486.562 86.125C486.569 86.125 486.589 86.1258 486.619 86.1326C486.649 86.1394 486.679 86.1503 486.707 86.1643C486.766 86.1939 486.772 86.2157 486.735 86.171L483.64 88.704C484.354 89.5773 485.36 90.125 486.562 90.125V86.125ZM486.724 86.1571C482.686 81.3118 478.697 77.5215 474.747 74.8444L472.503 78.1556C476.053 80.5618 479.772 84.0632 483.651 88.7179L486.724 86.1571ZM474.768 74.8589C470.736 72.0501 466.298 70.625 461.5 70.625V74.625C465.452 74.625 469.097 75.7832 472.482 78.1411L474.768 74.8589ZM461.5 70.625C457.974 70.625 454.95 71.3378 452.94 73.2323L455.685 76.1427C456.592 75.2872 458.359 74.625 461.5 74.625V70.625ZM452.942 73.2311C451.263 74.8107 450.188 76.6987 450.188 78.875H454.188C454.188 78.1346 454.528 77.2309 455.683 76.1439L452.942 73.2311ZM450.188 78.875C450.188 81.1393 451.436 83.0444 453.274 84.5923L455.851 81.5327C454.522 80.4139 454.188 79.5274 454.188 78.875H450.188ZM453.294 84.6086C455.08 86.0744 457.236 87.3685 459.732 88.5071L461.393 84.8679C459.139 83.8398 457.295 82.7172 455.831 81.5164L453.294 84.6086ZM459.744 88.5125C462.119 89.5768 464.686 90.8295 467.449 92.2727L469.301 88.7273C466.48 87.2538 463.84 85.9649 461.381 84.8625L459.744 88.5125ZM467.481 92.2889C470.262 93.6795 472.807 95.1056 475.12 96.566L477.255 93.184C474.818 91.6444 472.155 90.1539 469.269 88.7111L467.481 92.2889ZM475.154 96.5874C477.34 97.9062 479.132 99.5713 480.552 101.588L483.823 99.2865C482.076 96.8037 479.869 94.7605 477.221 93.1626L475.154 96.5874ZM480.577 101.623C481.895 103.415 482.625 105.764 482.625 108.812H486.625C486.625 105.111 485.73 101.877 483.798 99.2521L480.577 101.623ZM482.625 108.812C482.625 111.666 481.595 114.541 479.35 117.471L482.525 119.904C485.196 116.418 486.625 112.709 486.625 108.812H482.625ZM481.333 120.648C491.754 118.547 500.043 115.938 506.112 112.773L504.263 109.227C498.666 112.145 490.788 114.661 480.542 116.727L481.333 120.648ZM506.14 112.759C507.006 112.289 507.517 112.188 507.75 112.188V108.188C506.566 108.188 505.369 108.627 504.235 109.241L506.14 112.759ZM507.75 112.188C507.985 112.188 508.109 112.218 508.157 112.233C508.194 112.246 508.163 112.242 508.117 112.195C508.071 112.149 508.067 112.118 508.079 112.156C508.095 112.203 508.125 112.327 508.125 112.562H512.125C512.125 111.463 511.849 110.27 510.945 109.367C510.042 108.464 508.85 108.188 507.75 108.188V112.188ZM508.125 112.562C508.125 112.964 507.909 113.664 506.549 114.606L508.826 117.894C510.716 116.586 512.125 114.827 512.125 112.562H508.125ZM506.578 114.586C505.119 115.559 502.578 116.832 498.847 118.408L500.403 122.092C504.172 120.501 507.006 119.108 508.797 117.914L506.578 114.586ZM498.865 118.4C495.187 119.912 490.79 121.455 485.664 123.025L486.836 126.85C492.044 125.254 496.563 123.671 500.385 122.1L498.865 118.4ZM485.667 123.024C473.832 126.628 461.113 128.438 447.5 128.438V132.438C461.47 132.438 474.585 130.58 486.833 126.851L485.667 123.024ZM569.875 109.438L568.139 108.444L568.134 108.454L569.875 109.438ZM598.5 76L599.87 77.4575L599.872 77.4556L598.5 76ZM633.688 47L634.845 48.6309L638.994 45.6858L633.95 45.0173L633.688 47ZM606.312 48L606.723 49.9574L606.73 49.9559L606.738 49.9542L606.312 48ZM582.5 56.75L581.596 54.9659L581.589 54.9696L581.582 54.9733L582.5 56.75ZM568.062 37.0625L566.286 36.143L566.284 36.1478L568.062 37.0625ZM578.375 25.4375L577.498 23.64L577.496 23.6409L578.375 25.4375ZM637.562 37.875L636.854 39.7453L638.063 40.2033L638.977 39.2892L637.562 37.875ZM655 31.5625L653.666 33.0522L653.682 33.0668L653.698 33.081L655 31.5625ZM649.375 52.3125L650.961 53.531L650.968 53.5217L649.375 52.3125ZM640.562 63.5L639.004 62.2467L638.996 62.2565L640.562 63.5ZM630.625 76.75L632.249 77.9179L632.253 77.9111L630.625 76.75ZM621 91.1875L622.702 92.2371L622.703 92.2357L621 91.1875ZM607.938 123.5L605.969 123.147L605.967 123.157L607.938 123.5ZM605.25 127.375L604.418 125.556L605.25 127.375ZM570.875 127.375C569.331 127.375 568.535 126.976 568.101 126.523C567.651 126.054 567.25 125.171 567.25 123.5H563.25C563.25 125.745 563.786 127.801 565.212 129.289C566.653 130.795 568.669 131.375 570.875 131.375V127.375ZM567.25 123.5C567.25 120.076 568.611 115.742 571.616 110.421L568.134 108.454C564.972 114.05 563.25 119.091 563.25 123.5H567.25ZM571.611 110.431C574.657 105.11 578.573 99.7408 583.372 94.3266L580.378 91.6734C575.427 97.2592 571.343 102.849 568.139 108.444L571.611 110.431ZM583.372 94.3266C588.201 88.8786 593.699 83.2556 599.87 77.4575L597.13 74.5425C590.885 80.4111 585.299 86.1214 580.378 91.6734L583.372 94.3266ZM599.872 77.4556C611.352 66.6386 623.01 57.0315 634.845 48.6309L632.53 45.3691C620.532 53.8851 608.732 63.6114 597.128 74.5444L599.872 77.4556ZM633.95 45.0173C630.379 44.544 626.14 44.3125 621.25 44.3125V48.3125C626.026 48.3125 630.079 48.5393 633.425 48.9827L633.95 45.0173ZM621.25 44.3125C616.301 44.3125 611.179 44.8934 605.887 46.0458L606.738 49.9542C611.779 48.8566 616.615 48.3125 621.25 48.3125V44.3125ZM605.902 46.0426C600.645 47.1449 596.04 48.5111 592.104 50.1544L593.646 53.8456C597.294 52.3222 601.647 51.0218 606.723 49.9574L605.902 46.0426ZM592.104 50.1544C588.275 51.7535 584.771 53.3571 581.596 54.9659L583.404 58.5341C586.479 56.9762 589.892 55.4132 593.646 53.8456L592.104 50.1544ZM581.582 54.9733C577.893 56.8797 574.952 58.2899 572.741 59.2186C571.635 59.6834 570.74 60.0153 570.044 60.228C569.31 60.4525 568.935 60.5 568.812 60.5V64.5C569.544 64.5 570.38 64.3079 571.214 64.0533C572.085 63.7868 573.115 63.4 574.29 62.9064C576.642 61.9184 579.69 60.4536 583.418 58.5267L581.582 54.9733ZM568.812 60.5C567.469 60.5 566.72 60.1675 566.283 59.7701L563.592 62.7299C564.988 63.9992 566.823 64.5 568.812 64.5V60.5ZM566.283 59.7701C565.771 59.3049 565.562 58.8164 565.562 58.1875H561.562C561.562 59.9753 562.271 61.5284 563.592 62.7299L566.283 59.7701ZM565.562 58.1875C565.562 50.1756 567.019 43.464 569.841 37.9772L566.284 36.1478C563.106 42.3276 561.562 49.6994 561.562 58.1875H565.562ZM569.839 37.982C572.785 32.2916 575.966 28.8423 579.254 27.2341L577.496 23.6409C573.117 25.7827 569.424 30.0834 566.286 36.143L569.839 37.982ZM579.252 27.235C580.546 26.6036 582.761 26.1875 586.125 26.1875V22.1875C582.573 22.1875 579.62 22.6047 577.498 23.64L579.252 27.235ZM586.125 26.1875C595.923 26.1875 612.754 30.6139 636.854 39.7453L638.271 36.0047C614.205 26.8861 596.743 22.1875 586.125 22.1875V26.1875ZM638.977 39.2892C642.214 36.0515 644.659 33.8159 646.343 32.5241L643.907 29.3509C642.007 30.8091 639.411 33.1985 636.148 36.4608L638.977 39.2892ZM646.343 32.5241C647.991 31.259 649.144 30.875 649.875 30.875V26.875C647.856 26.875 645.842 27.866 643.907 29.3509L646.343 32.5241ZM649.875 30.875C650.516 30.875 651.744 31.3309 653.666 33.0522L656.334 30.0728C654.256 28.2107 652.068 26.875 649.875 26.875V30.875ZM653.698 33.081C655.594 34.7059 656.062 35.8652 656.062 36.5625H660.062C660.062 34.0931 658.489 31.9191 656.302 30.044L653.698 33.081ZM656.062 36.5625C656.062 37.5436 655.512 39.2972 653.954 42.0021L657.421 43.9979C659.03 41.2028 660.062 38.6648 660.062 36.5625H656.062ZM653.954 42.0021C652.425 44.6577 650.373 47.6897 647.782 51.1033L650.968 53.5217C653.627 50.0186 655.783 46.8423 657.421 43.9979L653.954 42.0021ZM647.789 51.094C645.175 54.4969 642.246 58.2143 639.004 62.2467L642.121 64.7533C645.379 60.7024 648.325 56.9614 650.961 53.531L647.789 51.094ZM638.996 62.2565C635.764 66.3285 632.43 70.773 628.997 75.5889L632.253 77.9111C635.653 73.1436 638.945 68.7548 642.129 64.7435L638.996 62.2565ZM629.001 75.5821C625.557 80.3702 622.322 85.2226 619.297 90.1393L622.703 92.2357C625.678 87.4024 628.859 82.6298 632.249 77.9179L629.001 75.5821ZM619.298 90.1379C612.361 101.388 607.897 112.393 605.969 123.147L609.906 123.853C611.728 113.69 615.972 103.154 622.702 92.2371L619.298 90.1379ZM605.967 123.157C605.719 124.582 605.145 125.224 604.418 125.556L606.082 129.194C608.272 128.193 609.489 126.251 609.908 123.843L605.967 123.157ZM604.418 125.556C603.978 125.758 602.97 126.021 601.185 126.269C599.463 126.509 597.191 126.713 594.353 126.878C588.68 127.208 580.86 127.375 570.875 127.375V131.375C580.89 131.375 588.799 131.208 594.585 130.872C597.476 130.703 599.866 130.491 601.737 130.231C603.546 129.979 605.064 129.659 606.082 129.194L604.418 125.556Z" fill="#4B0C61"/>
<path d="M238.034 153.194H240.055C239.786 154.362 239.651 155.44 239.651 156.428C239.651 157.806 239.786 159.588 240.055 161.774L238.034 162.134C237.794 160.367 237.33 158.959 236.641 157.911C235.443 156.084 233.542 155.171 230.936 155.171C228.78 155.171 227.103 155.725 225.905 156.833C224.737 157.941 224.153 159.154 224.153 160.471C224.153 161.43 224.378 162.238 224.827 162.897C225.306 163.556 225.965 164.05 226.803 164.38C227.672 164.679 228.376 164.889 228.915 165.009C229.454 165.098 230.143 165.188 230.981 165.278C232.868 165.488 234.245 165.697 235.114 165.907C236.012 166.087 236.821 166.416 237.54 166.895C239.396 168.153 240.325 169.89 240.325 172.106C240.325 174.532 239.396 176.419 237.54 177.766C235.683 179.084 233.542 179.743 231.116 179.743C228.66 179.743 226.609 179.054 224.962 177.677C224.842 177.557 224.722 177.497 224.602 177.497C224.452 177.497 224.303 177.617 224.153 177.856C224.033 178.216 223.898 178.889 223.749 179.878H221.727C221.997 178.59 222.131 177.257 222.131 175.88C222.131 175.221 221.997 173.634 221.727 171.118H223.749C224.108 172.915 224.617 174.248 225.276 175.116C226.474 176.703 228.316 177.497 230.801 177.497C233.287 177.497 235.084 176.973 236.192 175.925C237.33 174.876 237.899 173.664 237.899 172.286C237.899 171.537 237.749 170.893 237.45 170.354C237.15 169.785 236.791 169.351 236.372 169.052C235.982 168.722 235.458 168.453 234.799 168.243C234.171 168.033 233.646 167.899 233.227 167.839C232.808 167.779 232.284 167.719 231.655 167.659C230.637 167.569 229.813 167.479 229.184 167.389C228.585 167.3 227.747 167.09 226.669 166.761C225.62 166.431 224.782 166.042 224.153 165.593C223.524 165.143 222.955 164.499 222.446 163.661C221.967 162.792 221.727 161.789 221.727 160.651C221.727 158.555 222.581 156.743 224.288 155.216C226.025 153.688 228.151 152.925 230.667 152.925C232.823 152.925 234.68 153.539 236.237 154.766C236.806 155.186 237.15 155.395 237.27 155.395C237.45 155.395 237.57 155.32 237.629 155.171C237.689 155.021 237.794 154.557 237.944 153.778C238.004 153.539 238.034 153.344 238.034 153.194ZM252.004 153.688H254.251V160.292H265.122V162.403H254.251V170.893C254.251 171.792 254.251 172.466 254.251 172.915C254.281 173.334 254.37 173.888 254.52 174.577C254.7 175.266 254.939 175.775 255.239 176.104C255.538 176.404 256.003 176.688 256.631 176.958C257.26 177.227 258.024 177.362 258.922 177.362C260.989 177.362 263.879 176.583 267.592 175.026L268.401 177.048C264.628 178.755 261.543 179.608 259.147 179.608C256.781 179.608 254.924 178.934 253.577 177.587C252.858 176.868 252.409 176.044 252.229 175.116C252.079 174.158 252.004 172.75 252.004 170.893V162.403H248.95V160.292H252.004V153.688ZM291.895 165.682V176.868H295.893V178.979H289.649V175.745C286.864 178.32 284.004 179.608 281.069 179.608C278.943 179.608 277.206 178.964 275.858 177.677C274.51 176.389 273.837 174.921 273.837 173.274C273.837 172.585 273.986 171.882 274.286 171.163C274.615 170.444 275.109 169.725 275.768 169.007C276.457 168.258 277.445 167.659 278.733 167.21C280.051 166.731 281.593 166.491 283.36 166.491C285.576 166.491 287.672 166.686 289.649 167.075V165.682C289.649 165.263 289.634 164.919 289.604 164.649C289.574 164.35 289.469 163.945 289.29 163.436C289.11 162.897 288.84 162.478 288.481 162.178C288.122 161.849 287.568 161.565 286.819 161.325C286.1 161.055 285.232 160.921 284.213 160.921C281.967 160.921 279.407 161.55 276.532 162.807L275.678 160.786C278.913 159.438 281.773 158.764 284.258 158.764C285.696 158.764 286.924 158.959 287.942 159.348C288.99 159.738 289.754 160.172 290.233 160.651C290.742 161.13 291.131 161.759 291.401 162.538C291.671 163.287 291.82 163.856 291.85 164.245C291.88 164.634 291.895 165.113 291.895 165.682ZM289.649 172.735V169.141C287.762 168.812 285.816 168.647 283.809 168.647C282.432 168.647 281.219 168.797 280.171 169.096C279.152 169.396 278.404 169.74 277.924 170.13C277.445 170.489 277.071 170.938 276.801 171.477C276.532 171.986 276.367 172.376 276.307 172.645C276.277 172.885 276.262 173.109 276.262 173.319C276.262 174.427 276.741 175.401 277.7 176.239C278.658 177.048 279.766 177.452 281.024 177.452C283.959 177.452 286.834 175.88 289.649 172.735ZM301.868 159.663H309.325V164.155C310.073 163.406 310.657 162.837 311.077 162.448C311.526 162.059 312.185 161.55 313.053 160.921C313.922 160.262 314.805 159.783 315.704 159.483C316.632 159.184 317.605 159.034 318.624 159.034C319.492 159.034 320.271 159.184 320.96 159.483C321.678 159.753 322.202 160.037 322.532 160.337C322.861 160.606 323.236 160.996 323.655 161.505L321.274 163.257C321.154 163.137 321.094 163.032 321.094 162.942C320.855 162.583 320.66 162.328 320.51 162.178C320.391 161.999 320.121 161.804 319.702 161.595C319.282 161.385 318.803 161.28 318.264 161.28C317.366 161.28 316.452 161.475 315.524 161.864C314.596 162.253 313.697 162.822 312.829 163.571C311.96 164.32 311.316 164.919 310.897 165.368C310.478 165.787 309.954 166.341 309.325 167.03V176.868H317.86V178.979H301.508V176.868H307.079V161.774H301.868V159.663ZM332.864 153.688H335.11V160.292H345.981V162.403H335.11V170.893C335.11 171.792 335.11 172.466 335.11 172.915C335.14 173.334 335.23 173.888 335.379 174.577C335.559 175.266 335.799 175.775 336.098 176.104C336.398 176.404 336.862 176.688 337.491 176.958C338.12 177.227 338.883 177.362 339.782 177.362C341.848 177.362 344.738 176.583 348.452 175.026L349.26 177.048C345.487 178.755 342.402 179.608 340.006 179.608C337.641 179.608 335.784 178.934 334.436 177.587C333.717 176.868 333.268 176.044 333.088 175.116C332.939 174.158 332.864 172.75 332.864 170.893V162.403H329.809V160.292H332.864V153.688ZM369.556 153.688H379.394V155.8H375.576V166.805L386.896 155.8H383.212V153.688H391.972V155.8H389.951L380.203 165.278C381.7 166.027 383.167 167.24 384.605 168.917C386.042 170.564 387.555 173.214 389.142 176.868H393.275V178.979H387.525C387.016 177.602 386.042 175.58 384.605 172.915C383.677 171.358 382.763 170.115 381.865 169.186C380.996 168.228 379.933 167.434 378.675 166.805L375.576 169.77V176.868H379.394V178.979H369.556V176.868H373.329V155.8H369.556V153.688ZM399.654 159.663H408.503V176.868H416.275V178.979H398.351V176.868H406.257V161.774H399.654V159.663ZM405.269 154.856V149.511H408.503V154.856H405.269ZM428.538 153.688H430.785V160.292H441.656V162.403H430.785V170.893C430.785 171.792 430.785 172.466 430.785 172.915C430.815 173.334 430.904 173.888 431.054 174.577C431.234 175.266 431.473 175.775 431.773 176.104C432.072 176.404 432.537 176.688 433.165 176.958C433.794 177.227 434.558 177.362 435.456 177.362C437.523 177.362 440.413 176.583 444.126 175.026L444.935 177.048C441.162 178.755 438.077 179.608 435.681 179.608C433.315 179.608 431.458 178.934 430.111 177.587C429.392 176.868 428.943 176.044 428.763 175.116C428.613 174.158 428.538 172.75 428.538 170.893V162.403H425.484V160.292H428.538V153.688Z" fill="black"/>
<defs>
<linearGradient id="paint0_linear_1_7" x1="390.199" y1="12.5874" x2="27.8279" y2="134.606" gradientUnits="userSpaceOnUse">
<stop stop-color="#C94E4E"/>
<stop offset="1" stop-color="#004BA3"/>
</linearGradient>
</defs>
</svg>
